<svg xmlns="http://www.w3.org/2000/svg" xmlns:xlink="http://www.w3.org/1999/xlink" width="1920" zoomAndPan="magnify" viewBox="0 0 1440 809.999993" height="1080" preserveAspectRatio="xMidYMid meet" version="1.0"><defs><clipPath id="22bd744eef"><path d="M 194.027344 522 L 392 522 L 392 551 L 194.027344 551 Z M 194.027344 522 " clip-rule="nonzero"/></clipPath></defs><path fill="#00bf63" d="M 755.566406 111.570312 C 755.609375 112.054688 755.921875 112.320312 756.40625 112.320312 C 760.078125 112.453125 763.574219 112.054688 767.066406 113.027344 C 774.632812 115.0625 781.886719 117.9375 788.789062 121.65625 C 796.664062 125.859375 801.265625 130.945312 806.792969 137.847656 C 816.925781 150.453125 833.070312 154.390625 847.667969 147.402344 C 864.96875 139.085938 873.769531 119.222656 874.078125 100.507812 C 874.167969 94.183594 874.125 87.945312 873.902344 81.707031 C 873.902344 81.707031 873.902344 81.664062 873.902344 81.664062 C 873.859375 81.398438 873.59375 81.175781 873.328125 81.222656 C 857.625 83.476562 842.050781 85.953125 826.566406 88.742188 C 822.011719 89.582031 819.488281 90.46875 819.800781 95.554688 C 820.152344 102.410156 820.597656 109.269531 821.039062 116.125 C 821.082031 116.65625 820.863281 116.789062 820.375 116.566406 C 816.304688 114.621094 812.542969 112.230469 809.183594 109.355469 C 799.316406 100.996094 800.734375 84.894531 810.15625 77.59375 C 816.082031 72.992188 826.523438 71.222656 834.441406 70.160156 C 857.226562 67.152344 880.007812 64.191406 902.835938 61.3125 C 905.488281 60.960938 907.699219 60.207031 909.46875 59.058594 C 913.585938 56.316406 916.945312 52.6875 919.511719 48.265625 C 919.644531 48 919.601562 47.867188 919.292969 47.867188 L 871.558594 47.601562 C 871.117188 47.601562 870.761719 47.421875 870.496094 47.070312 C 863.90625 37.425781 856.121094 30.039062 847.140625 24.949219 C 802.855469 -0.222656 749.460938 33.488281 753.175781 84.9375 C 754.019531 96.792969 754.8125 105.683594 755.566406 111.570312 Z M 755.566406 111.570312 " fill-opacity="1" fill-rule="nonzero"/><path fill="#00bf63" d="M 497.65625 294.757812 C 526.855469 305.332031 556.050781 315.90625 585.292969 326.476562 C 594.894531 329.972656 601.660156 331.699219 605.644531 331.742188 C 614.84375 331.832031 622.71875 327.714844 629.175781 319.488281 C 629.398438 319.179688 629.707031 319.089844 630.105469 319.179688 L 654.527344 325.195312 C 654.96875 325.328125 655.101562 325.59375 654.96875 325.992188 C 648.289062 344.96875 649.703125 362.308594 659.214844 377.96875 C 668.238281 392.835938 682.925781 402.875 700.355469 403.007812 C 734.023438 403.273438 785.738281 402.742188 855.457031 401.417969 C 855.855469 401.417969 856.121094 401.59375 856.164062 401.992188 C 864.746094 451.140625 875.761719 500.113281 885.359375 548.816406 C 885.625 550.144531 886.332031 550.5 887.574219 550.011719 L 926.457031 533.511719 C 927.476562 533.070312 928.09375 532.050781 928.050781 530.988281 C 926.058594 483.523438 923.671875 436.011719 920.882812 388.453125 C 920.351562 379.695312 919.378906 373.28125 917.921875 369.253906 C 913.1875 356.117188 903.367188 348.152344 888.324219 345.324219 C 873.460938 342.535156 853.640625 341.785156 840.589844 340.414062 C 813.785156 337.625 786.929688 334.972656 759.988281 332.449219 C 759.546875 332.40625 759.371094 332.183594 759.546875 331.742188 L 778.347656 284.007812 C 778.480469 283.65625 778.4375 283.34375 778.261719 283.035156 L 758.351562 251.226562 C 757.867188 250.433594 756.847656 250.167969 756.050781 250.652344 L 671.203125 298.519531 C 670.894531 298.695312 670.585938 298.738281 670.273438 298.695312 C 659.921875 296.835938 649.570312 294.933594 639.21875 292.902344 C 638.777344 292.8125 638.644531 292.589844 638.820312 292.148438 L 685.625 174.917969 C 685.933594 174.078125 686.863281 173.632812 687.703125 173.898438 L 705.621094 178.855469 C 705.976562 178.941406 706.109375 179.207031 705.976562 179.5625 C 704.117188 185.136719 702.703125 189.117188 701.726562 191.460938 C 690.359375 219.820312 678.238281 249.148438 665.410156 279.320312 C 665.363281 279.40625 665.363281 279.496094 665.410156 279.585938 C 665.496094 279.71875 665.628906 279.761719 665.761719 279.71875 L 762.289062 226.542969 C 762.910156 226.1875 763.660156 226.410156 764.015625 226.984375 C 776.535156 246.140625 788.65625 265.296875 800.378906 284.449219 C 805.554688 292.902344 809.582031 298.386719 812.5 300.90625 C 822.320312 309.402344 831.832031 310.019531 844.972656 309.886719 C 868.992188 309.621094 893.015625 309.3125 917.078125 308.871094 C 917.566406 308.871094 917.789062 308.605469 917.789062 308.117188 C 916.992188 295.246094 921.8125 284.9375 928.671875 274.496094 C 928.714844 274.410156 928.757812 274.320312 928.757812 274.230469 C 928.804688 273.878906 928.582031 273.523438 928.183594 273.480469 L 845.28125 260.871094 C 844.972656 260.828125 844.707031 260.652344 844.574219 260.339844 C 832.539062 233.488281 820.996094 206.328125 809.890625 178.898438 C 806.75 171.113281 803.519531 164.167969 800.203125 158.0625 C 782.507812 125.28125 742.824219 127.363281 720.707031 153.683594 C 720.441406 153.992188 720.085938 154.125 719.6875 153.992188 L 697.394531 147.800781 C 696.949219 147.667969 696.773438 147.402344 696.863281 146.957031 C 698.941406 135.765625 696.066406 126.832031 688.28125 120.285156 C 685.890625 118.25 682.21875 116.347656 677.308594 114.578125 C 647.226562 103.738281 617.1875 92.898438 587.0625 82.148438 C 572.464844 76.929688 562.511719 75.203125 550.476562 82.902344 C 544.640625 86.617188 541.941406 90.953125 539.550781 97.324219 C 537.515625 102.722656 533.710938 110.375 531.144531 116.699219 C 513.40625 160.496094 495.800781 204.335938 478.371094 248.308594 C 475.496094 255.519531 473.945312 260.695312 473.726562 263.878906 C 472.617188 278.964844 483.855469 289.757812 497.65625 294.757812 Z M 553.132812 112.71875 L 558.882812 100.023438 C 559.105469 99.492188 559.722656 99.226562 560.253906 99.449219 L 661.957031 135.898438 C 662.445312 136.078125 662.535156 136.386719 662.355469 136.828125 L 656.5625 149.746094 C 656.382812 150.144531 656.074219 150.277344 655.675781 150.144531 C 621.257812 138.820312 587.195312 126.566406 553.398438 113.425781 C 553.398438 113.425781 553.355469 113.425781 553.355469 113.425781 C 553.089844 113.292969 553 112.984375 553.132812 112.71875 Z M 553.132812 112.71875 " fill-opacity="1" fill-rule="nonzero"/><path fill="#00bf63" d="M 329.507812 207.210938 C 365.5625 211.722656 401.574219 215.261719 437.492188 217.828125 C 452.492188 218.890625 457.089844 198.539062 441.875 196.683594 C 439.175781 196.328125 435.8125 197.300781 432.804688 197.433594 C 398.167969 199.117188 363.925781 202.609375 329.554688 206.769531 C 329.421875 206.769531 329.332031 206.859375 329.332031 206.988281 C 329.289062 207.121094 329.421875 207.210938 329.507812 207.210938 Z M 329.507812 207.210938 " fill-opacity="1" fill-rule="nonzero"/><path fill="#00bf63" d="M 1222.675781 602.214844 C 1222.367188 601.683594 1221.792969 601.417969 1221.171875 601.460938 C 1182.285156 603.984375 1142.828125 617.035156 1108.628906 635.523438 C 1081.203125 650.390625 1056.917969 671.136719 1035.769531 697.8125 C 1035.550781 698.121094 1035.460938 698.429688 1035.636719 698.785156 C 1042.140625 715.949219 1052.050781 730.726562 1065.320312 743.113281 C 1070.097656 747.578125 1076.070312 751.296875 1081.734375 755.144531 C 1082.132812 755.410156 1082.085938 755.542969 1081.601562 755.5 C 1035.0625 753.773438 988.566406 752.003906 942.03125 750.101562 C 926.105469 749.480469 914.160156 749.085938 906.152344 748.996094 C 818.296875 747.976562 730.261719 747.226562 642.40625 748.863281 C 639.265625 748.90625 636.300781 750.324219 632.894531 750.410156 C 632.097656 750.457031 632.007812 750.234375 632.671875 749.792969 C 655.984375 734.265625 670.984375 712.808594 677.707031 685.46875 C 677.707031 685.425781 677.707031 685.382812 677.707031 685.335938 C 677.707031 685.027344 677.441406 684.761719 677.132812 684.761719 L 628.292969 685.46875 C 627.585938 685.46875 626.964844 685.867188 626.613281 686.441406 C 612.675781 709.625 592.992188 722.496094 564.589844 717.808594 C 539.285156 713.648438 521.722656 693.785156 517.832031 668.878906 C 517.832031 668.835938 517.832031 668.792969 517.832031 668.703125 C 517.832031 668.128906 518.316406 667.640625 518.890625 667.640625 L 548.222656 667.554688 C 548.664062 667.554688 548.929688 667.773438 549.0625 668.171875 C 556.980469 693.210938 591.621094 694.449219 598.609375 668.4375 C 598.742188 668.039062 599.007812 667.820312 599.449219 667.820312 C 612.410156 667.6875 625.726562 667.996094 638.246094 667.199219 C 659.65625 665.871094 681.070312 664.367188 702.480469 662.777344 C 710.886719 662.15625 719.203125 661.800781 727.386719 661.847656 C 787.375 661.933594 847.40625 661.890625 907.390625 661.757812 C 919.070312 661.714844 927.296875 661.316406 932.121094 660.476562 C 960.609375 655.566406 986.179688 636.101562 1001.882812 612.386719 C 1015.6875 591.550781 1026.523438 568.8125 1042.761719 550.101562 C 1060.324219 529.839844 1082.132812 515.859375 1108.1875 508.117188 C 1108.542969 508.03125 1108.71875 507.808594 1108.71875 507.410156 C 1109.339844 496.707031 1107.570312 487.503906 1103.5 479.851562 C 1100.535156 474.367188 1093.015625 462.6875 1080.847656 444.726562 C 1067.222656 424.640625 1053.15625 404.910156 1039.707031 384.652344 C 1027.851562 366.777344 1015.730469 349.128906 1003.300781 331.699219 C 1003.253906 331.652344 1003.253906 331.609375 1003.253906 331.566406 C 1003.253906 331.433594 1003.34375 331.34375 1003.476562 331.34375 C 1016.128906 331.785156 1028.871094 332.140625 1041.652344 332.359375 C 1045.324219 332.40625 1047.980469 331.875 1049.574219 330.722656 C 1051.875 329.085938 1053.289062 326.476562 1053.90625 322.9375 C 1057.492188 302.808594 1057.890625 283.523438 1055.148438 265.074219 C 1053.90625 256.757812 1052.535156 249.546875 1042.980469 249.8125 C 1020.109375 250.519531 999.40625 258.171875 978.480469 268.347656 C 978.347656 268.394531 978.261719 268.480469 978.214844 268.570312 C 977.996094 268.878906 978.082031 269.277344 978.394531 269.5 C 990.160156 277.195312 996.175781 287.371094 996.308594 299.933594 C 996.574219 319.179688 984.941406 334.839844 966.316406 340.5 C 965.828125 340.632812 965.609375 340.988281 965.695312 341.472656 C 966.007812 343.6875 967.464844 346.515625 967.953125 347.976562 C 975.472656 371.6875 983.214844 395.355469 991.222656 418.933594 C 999.007812 441.851562 1005.070312 460.121094 1008.917969 480.558594 C 1013.917969 507.191406 1007.058594 535.238281 993.035156 557.886719 C 976.625 584.339844 954.019531 602.921875 923.492188 611.414062 C 916.414062 613.40625 910.488281 614.421875 905.710938 614.554688 C 892.304688 614.910156 873.816406 614.910156 850.234375 614.601562 C 839.398438 614.46875 831.125 613.714844 825.417969 612.433594 C 785.78125 603.363281 759.636719 568.679688 762.335938 527.847656 C 763 517.628906 765.875 508.03125 770.917969 499.050781 C 784.410156 475.074219 804.804688 461.09375 832.097656 457.066406 C 832.1875 457.066406 832.273438 457.023438 832.363281 456.980469 C 832.71875 456.757812 832.851562 456.273438 832.628906 455.917969 C 827.808594 447.734375 822.984375 439.59375 818.164062 431.453125 C 816.878906 429.332031 814.933594 426.765625 812.28125 423.800781 C 812.015625 423.492188 811.660156 423.316406 811.21875 423.359375 C 777.109375 423.757812 743.003906 423.84375 708.894531 423.578125 C 682.792969 423.402344 660.585938 413.890625 645.589844 391.949219 C 643.289062 388.585938 641.078125 385.136719 638.910156 381.6875 C 638.6875 381.332031 638.378906 381.15625 637.980469 381.15625 C 614.226562 381.507812 590.46875 381.597656 566.714844 381.375 C 549.328125 381.199219 540.65625 398.453125 546.804688 413.449219 C 548.089844 416.546875 550.390625 419.730469 553.796875 423.050781 C 561.273438 430.304688 569.722656 435.570312 577.816406 441.453125 C 577.90625 441.496094 577.949219 441.585938 577.996094 441.671875 C 578.039062 441.894531 577.90625 442.160156 577.683594 442.203125 C 566.316406 445.433594 555.386719 449.8125 544.859375 455.34375 C 514.910156 471.089844 487.660156 493.917969 468.328125 521.746094 C 446.871094 552.621094 432.316406 586.6875 424.664062 623.933594 C 424.222656 626.015625 423.914062 628.179688 423.648438 630.4375 C 423.601562 630.878906 423.78125 631.144531 424.265625 631.144531 C 504.734375 631.144531 585.25 631.101562 665.71875 630.96875 C 681.289062 630.925781 693.941406 625.484375 703.761719 614.554688 C 727.609375 588.058594 716.902344 550.941406 695.179688 527.539062 C 681.820312 513.164062 665.277344 503.339844 645.589844 498.121094 C 603.609375 487.015625 559.679688 501.703125 527.738281 529.972656 C 504.074219 550.941406 488.367188 577.484375 480.625 609.644531 C 480.492188 610.132812 480.226562 610.351562 479.742188 610.351562 L 460.894531 610.398438 C 460.851562 610.398438 460.851562 610.398438 460.808594 610.398438 C 460.585938 610.351562 460.453125 610.132812 460.496094 609.957031 C 466.382812 585.136719 476.601562 562.3125 491.15625 541.429688 C 524.464844 493.566406 591.574219 463.039062 650.015625 478.746094 C 683.238281 487.679688 711.195312 507.988281 727.078125 538.730469 C 740.746094 565.1875 740.171875 599.339844 721.988281 623.582031 C 706.195312 644.59375 683.414062 651.804688 657.535156 651.847656 C 594.496094 651.9375 531.457031 651.894531 468.417969 651.714844 C 467.972656 651.714844 467.796875 651.9375 467.796875 652.335938 C 467.53125 691.484375 483.632812 727.273438 515.085938 750.722656 C 515.175781 750.765625 515.175781 750.855469 515.21875 750.941406 C 515.21875 751.117188 515.085938 751.25 514.953125 751.25 C 496.242188 752.359375 477.484375 753.199219 458.640625 753.773438 C 437.492188 754.4375 417.101562 755.898438 396.265625 757.222656 C 365.386719 759.171875 334.640625 762.265625 303.9375 766.515625 C 301.460938 766.867188 299.117188 767.175781 296.859375 767.488281 C 296.726562 767.53125 296.59375 767.664062 296.59375 767.796875 C 296.550781 768.019531 296.726562 768.195312 296.90625 768.195312 C 301.902344 768.460938 306.992188 769.167969 311.726562 769.300781 C 336.808594 770.140625 361.847656 771.113281 386.929688 772.132812 C 395.070312 772.484375 403.386719 772.664062 411.878906 772.75 C 436.699219 772.972656 461.558594 773.679688 486.378906 773.679688 C 661.117188 773.726562 835.859375 773.726562 1010.554688 773.636719 C 1095.667969 773.59375 1153.886719 772.617188 1223.871094 767.972656 C 1224.488281 767.929688 1224.886719 767.796875 1225.199219 767.53125 C 1225.285156 767.488281 1225.332031 767.355469 1225.332031 767.265625 C 1225.375 767.046875 1225.199219 766.824219 1224.976562 766.824219 L 1179.589844 760.808594 C 1178.085938 760.585938 1177.953125 760.097656 1179.277344 759.304688 C 1181.3125 758.109375 1183.570312 756.738281 1186.136719 755.234375 C 1204.40625 744.351562 1218.074219 728.867188 1227.851562 710.199219 C 1238.425781 690.027344 1242.007812 667.023438 1239.132812 644.417969 C 1237.230469 629.464844 1230.550781 614.734375 1222.675781 602.214844 Z M 1041.433594 264.367188 C 1041.519531 264.191406 1041.699219 264.058594 1041.875 264.011719 C 1042.230469 263.96875 1042.539062 264.191406 1042.628906 264.542969 C 1045.855469 282.59375 1045.769531 300.640625 1042.496094 318.648438 C 1042.496094 318.78125 1042.40625 318.914062 1042.273438 318.957031 C 1042.050781 319.132812 1041.742188 319.046875 1041.566406 318.824219 C 1040.460938 317.277344 1039.441406 315.285156 1038.558594 312.894531 C 1032.363281 296.175781 1033.292969 279.984375 1041.433594 264.367188 Z M 1187.199219 680.515625 C 1170.828125 723.425781 1118.40625 732.183594 1089.652344 696 C 1087.351562 693.121094 1084.519531 688.078125 1081.070312 680.824219 C 1080.894531 680.472656 1080.980469 680.117188 1081.292969 679.851562 C 1088.945312 672.949219 1096.773438 666.359375 1104.914062 660.121094 C 1106.949219 658.574219 1108.542969 657.421875 1109.738281 656.714844 C 1109.867188 656.625 1110 656.625 1110.132812 656.625 C 1110.488281 656.671875 1110.753906 656.980469 1110.710938 657.335938 C 1109.691406 664.988281 1111.285156 671.625 1115.398438 677.195312 C 1124.910156 690.027344 1144.507812 690.601562 1154.550781 678.125 C 1163.441406 667.109375 1160.035156 652.6875 1148.046875 645.214844 C 1144.90625 643.265625 1141.457031 642.425781 1137.738281 642.734375 C 1137.652344 642.734375 1137.519531 642.691406 1137.472656 642.601562 C 1137.429688 642.46875 1137.472656 642.335938 1137.605469 642.25 C 1151.453125 635.835938 1165.742188 630.835938 1180.5625 627.164062 C 1181.003906 627.074219 1181.445312 627.253906 1181.667969 627.605469 C 1191.664062 642.824219 1193.65625 663.617188 1187.199219 680.515625 Z M 1187.199219 680.515625 " fill-opacity="1" fill-rule="nonzero"/><path fill="#00bf63" d="M 305.488281 275.425781 C 343.53125 278.964844 381.621094 283.300781 419.664062 285.070312 C 423.292969 285.246094 425.992188 284.894531 427.761719 284.054688 C 434.839844 280.648438 435.546875 269.054688 428.957031 265.382812 C 427.007812 264.324219 424.046875 263.835938 420.152344 263.96875 C 384.277344 265.339844 344.816406 269.5 309.824219 273.613281 C 308.585938 273.746094 306.59375 273.613281 305.265625 274.496094 C 305.132812 274.585938 305.046875 274.71875 305.046875 274.851562 C 305 275.160156 305.179688 275.382812 305.488281 275.425781 Z M 305.488281 275.425781 " fill-opacity="1" fill-rule="nonzero"/><path fill="#00bf63" d="M 962.421875 280.921875 C 963.085938 281.089844 963.734375 281.289062 964.378906 281.519531 C 965.019531 281.75 965.648438 282.015625 966.265625 282.308594 C 966.882812 282.605469 967.480469 282.929688 968.066406 283.285156 C 968.648438 283.640625 969.214844 284.023438 969.761719 284.4375 C 970.308594 284.847656 970.832031 285.285156 971.335938 285.753906 C 971.839844 286.21875 972.320312 286.707031 972.777344 287.21875 C 973.230469 287.734375 973.660156 288.269531 974.066406 288.828125 C 974.46875 289.382812 974.847656 289.960938 975.195312 290.554688 C 975.542969 291.152344 975.859375 291.761719 976.148438 292.390625 C 976.4375 293.019531 976.695312 293.660156 976.921875 294.316406 C 977.148438 294.96875 977.34375 295.632812 977.503906 296.308594 C 977.667969 296.984375 977.796875 297.664062 977.894531 298.351562 C 977.988281 299.039062 978.050781 299.730469 978.082031 300.425781 C 978.113281 301.121094 978.109375 301.816406 978.070312 302.511719 C 978.03125 303.207031 977.960938 303.898438 977.859375 304.589844 C 977.753906 305.277344 977.617188 305.960938 977.449219 306.636719 C 977.277344 307.3125 977.074219 307.976562 976.84375 308.632812 C 976.609375 309.289062 976.34375 309.933594 976.046875 310.566406 C 975.753906 311.195312 975.425781 311.808594 975.074219 312.40625 C 974.71875 313.007812 974.335938 313.585938 973.925781 314.148438 C 973.515625 314.707031 973.078125 315.246094 972.617188 315.765625 C 972.15625 316.28125 971.671875 316.777344 971.160156 317.246094 C 970.652344 317.714844 970.125 318.160156 969.570312 318.574219 C 969.019531 318.992188 968.453125 319.382812 967.863281 319.742188 C 967.273438 320.101562 966.671875 320.433594 966.050781 320.734375 C 965.433594 321.035156 964.800781 321.300781 964.15625 321.539062 C 963.511719 321.777344 962.859375 321.980469 962.195312 322.152344 C 961.53125 322.324219 960.859375 322.464844 960.183594 322.570312 C 959.507812 322.675781 958.828125 322.746094 958.144531 322.78125 C 957.460938 322.820312 956.78125 322.824219 956.097656 322.792969 C 955.414062 322.761719 954.738281 322.695312 954.0625 322.597656 C 953.386719 322.496094 952.71875 322.363281 952.054688 322.199219 C 951.394531 322.03125 950.742188 321.832031 950.101562 321.601562 C 949.457031 321.367188 948.828125 321.105469 948.210938 320.8125 C 947.597656 320.515625 946.996094 320.191406 946.414062 319.835938 C 945.828125 319.480469 945.261719 319.097656 944.714844 318.683594 C 944.171875 318.273438 943.644531 317.832031 943.140625 317.367188 C 942.636719 316.902344 942.15625 316.414062 941.703125 315.898438 C 941.246094 315.386719 940.816406 314.851562 940.410156 314.292969 C 940.007812 313.734375 939.632812 313.160156 939.285156 312.5625 C 938.9375 311.96875 938.617188 311.355469 938.328125 310.730469 C 938.039062 310.101562 937.78125 309.460938 937.554688 308.804688 C 937.328125 308.152344 937.136719 307.488281 936.972656 306.8125 C 936.8125 306.136719 936.679688 305.457031 936.585938 304.769531 C 936.488281 304.082031 936.425781 303.390625 936.394531 302.695312 C 936.367188 302 936.371094 301.304688 936.40625 300.609375 C 936.445312 299.914062 936.515625 299.21875 936.621094 298.53125 C 936.722656 297.84375 936.859375 297.160156 937.03125 296.484375 C 937.199219 295.808594 937.402344 295.140625 937.636719 294.484375 C 937.871094 293.828125 938.132812 293.1875 938.429688 292.554688 C 938.726562 291.925781 939.050781 291.3125 939.40625 290.710938 C 939.761719 290.113281 940.140625 289.535156 940.550781 288.972656 C 940.960938 288.414062 941.398438 287.875 941.859375 287.355469 C 942.320312 286.835938 942.808594 286.34375 943.316406 285.875 C 943.824219 285.40625 944.355469 284.960938 944.90625 284.542969 C 945.457031 284.128906 946.027344 283.738281 946.613281 283.378906 C 947.203125 283.019531 947.804688 282.6875 948.425781 282.386719 C 949.042969 282.085938 949.675781 281.816406 950.320312 281.582031 C 950.964844 281.34375 951.621094 281.140625 952.285156 280.96875 C 952.949219 280.796875 953.617188 280.65625 954.292969 280.550781 C 954.972656 280.445312 955.648438 280.375 956.332031 280.335938 C 957.015625 280.300781 957.699219 280.296875 958.378906 280.328125 C 959.0625 280.359375 959.742188 280.425781 960.417969 280.523438 C 961.09375 280.625 961.761719 280.757812 962.421875 280.921875 Z M 962.421875 280.921875 " fill-opacity="1" fill-rule="nonzero"/><path fill="#00bf63" d="M 306.902344 349.480469 C 371.046875 357.179688 435.371094 362.132812 499.914062 364.390625 C 508.628906 364.699219 514.46875 363.328125 517.519531 354.964844 C 519.203125 350.367188 519.46875 346.164062 518.316406 342.402344 C 515.308594 332.714844 507.257812 331.742188 497.570312 332.050781 C 425.503906 334.308594 352.953125 337.757812 281.511719 346.207031 C 279.164062 346.472656 279.164062 346.738281 281.511719 347.003906 C 289.828125 347.886719 298.808594 348.507812 306.902344 349.480469 Z M 306.902344 349.480469 " fill-opacity="1" fill-rule="nonzero"/><path fill="#00bf63" d="M 226.300781 450.34375 C 290.003906 457.910156 353.882812 462.863281 417.941406 465.253906 C 425.59375 465.519531 433.425781 465.207031 441.164062 465.738281 C 463.285156 467.15625 461.824219 432.78125 440.324219 434.417969 C 426.613281 435.4375 409.976562 435.921875 399.09375 436.496094 C 374.898438 437.824219 350.699219 439.242188 326.5 440.65625 C 292.96875 442.648438 259.566406 445.699219 226.34375 449.726562 C 226.167969 449.726562 226.035156 449.859375 226.035156 450.035156 C 225.992188 450.210938 226.125 450.34375 226.300781 450.34375 Z M 226.300781 450.34375 " fill-opacity="1" fill-rule="nonzero"/><g clip-path="url(#22bd744eef)"><path fill="#00bf63" d="M 373.128906 550.765625 C 378.171875 551.03125 381.710938 550.765625 383.699219 549.925781 C 392.8125 546.253906 394.273438 534.617188 388.65625 527.140625 C 386 523.601562 382.816406 521.921875 379.101562 522.097656 C 364.722656 522.628906 335.390625 524.132812 291.152344 526.65625 C 259.214844 528.46875 227.363281 531.699219 195.511719 535.679688 C 194.671875 535.769531 194.671875 535.945312 195.46875 536.210938 C 197.371094 536.828125 200.246094 536.785156 201.660156 536.960938 C 258.683594 543.289062 315.839844 547.84375 373.128906 550.765625 Z M 373.128906 550.765625 " fill-opacity="1" fill-rule="nonzero"/></g><path fill="#00bf63" d="M 1245.636719 579.917969 C 1224.269531 547.226562 1188.921875 524.441406 1149.59375 522.496094 C 1115.707031 520.816406 1081.734375 537.183594 1058.6875 561.691406 C 1035.769531 586.023438 1017.988281 618.890625 1013.207031 652.292969 C 1011.351562 665.519531 1011.128906 678.789062 1012.589844 692.148438 C 1012.589844 692.238281 1012.632812 692.328125 1012.722656 692.414062 C 1012.898438 692.546875 1013.121094 692.503906 1013.207031 692.328125 C 1039.222656 659.28125 1070.675781 633.136719 1107.65625 613.980469 C 1144.285156 594.957031 1183.214844 584.296875 1224.488281 581.953125 C 1231.433594 581.554688 1238.25 581.246094 1244.972656 581.066406 C 1245.105469 581.066406 1245.238281 581.023438 1245.371094 580.933594 C 1245.769531 580.714844 1245.855469 580.269531 1245.636719 579.917969 Z M 1245.636719 579.917969 " fill-opacity="1" fill-rule="nonzero"/><path fill="#00bf63" d="M 888.8125 569.257812 C 891.730469 579.386719 893.941406 589.695312 895.535156 600.132812 C 895.625 600.710938 895.933594 600.886719 896.464844 600.664062 C 905.886719 597.257812 918.894531 591.863281 935.484375 584.519531 C 950.523438 577.839844 962.421875 568.414062 971.136719 556.25 C 975.296875 550.453125 978.082031 546.074219 979.851562 539.707031 C 979.898438 539.574219 979.898438 539.394531 979.851562 539.261719 C 979.71875 538.820312 979.277344 538.511719 978.792969 538.644531 C 973.96875 539.835938 969.191406 541.519531 964.371094 543.6875 C 953.972656 548.421875 943.003906 550.585938 931.5 550.101562 C 931.015625 550.058594 930.527344 550.191406 930.128906 550.410156 C 917.078125 557.445312 903.5 563.328125 889.386719 568.015625 C 888.855469 568.238281 888.632812 568.636719 888.8125 569.257812 Z M 888.8125 569.257812 " fill-opacity="1" fill-rule="nonzero"/><path fill="#00bf63" d="M 366.582031 642.382812 C 375.914062 638.046875 376.667969 625.570312 369.324219 619.113281 C 366.933594 617.035156 364.28125 616.015625 361.273438 616.148438 C 307.433594 618.359375 253.816406 622.605469 200.378906 628.976562 C 200.289062 628.976562 200.199219 629.066406 200.199219 629.15625 C 200.199219 629.242188 200.289062 629.332031 200.378906 629.332031 C 253.019531 636.761719 306.105469 642.382812 359.105469 643.445312 C 362.378906 643.53125 364.898438 643.179688 366.582031 642.382812 Z M 366.582031 642.382812 " fill-opacity="1" fill-rule="nonzero"/><path fill="#00bf63" d="M 430.59375 732.140625 C 443.953125 732.40625 447.84375 714.046875 435.503906 709.359375 C 430.992188 707.632812 425.238281 709.136719 420.640625 709.179688 C 378.4375 709.84375 337.074219 714.445312 295.269531 719.269531 C 295.089844 719.269531 294.957031 719.398438 294.957031 719.578125 C 294.957031 719.753906 295.089844 719.886719 295.269531 719.886719 C 326.5 724 357.734375 726.832031 389.054688 729.707031 C 403.121094 731.035156 418.074219 731.917969 430.59375 732.140625 Z M 430.59375 732.140625 " fill-opacity="1" fill-rule="nonzero"/><path fill="#00bf63" d="M 1017.101562 797.4375 C 1016.96875 797.390625 1016.746094 797.347656 1016.527344 797.347656 C 996.929688 796.597656 982.152344 796.199219 972.246094 796.066406 C 812.765625 793.941406 653.332031 794.296875 493.898438 797.125 C 492.304688 797.171875 490.757812 797.214844 489.296875 797.214844 C 489.253906 797.214844 489.207031 797.257812 489.207031 797.304688 C 489.207031 797.347656 489.253906 797.390625 489.296875 797.390625 C 492.96875 797.65625 496.773438 797.96875 500.578125 798.277344 C 540.613281 801.417969 580.78125 802.613281 620.859375 804.867188 C 629.089844 805.3125 637.40625 805.707031 645.765625 805.972656 C 676.246094 806.992188 706.683594 808.1875 737.117188 809.511719 C 745.433594 809.867188 753.753906 809.910156 762.070312 809.558594 C 798.652344 808.054688 835.238281 806.769531 871.867188 805.707031 C 909.648438 804.648438 947.914062 802.214844 980.382812 800.003906 C 996.308594 798.894531 1008.519531 798.1875 1016.96875 797.878906 C 1017.589844 797.789062 1017.632812 797.65625 1017.101562 797.4375 Z M 1017.101562 797.4375 " fill-opacity="1" fill-rule="nonzero"/></svg>